<svg width="60" height="60" viewBox="0 0 60 60" fill="none" xmlns="http://www.w3.org/2000/svg">
<path d="M14.8151 51.435C17.0136 53.2767 19.6172 54.5713 22.4126 55.2125C22.6801 55.3 22.8601 54.95 22.6801 54.775C16.6926 49.0625 19.9826 42.88 22.4126 40.0925C24.1451 38.1025 26.6126 34.825 26.4326 30.43C26.4326 29.99 26.8826 29.6375 27.2376 29.9025C30.6351 31.66 32.9576 35.5275 33.5826 38.69C34.5676 37.725 34.9251 36.23 34.9251 34.9125C34.9251 34.4725 35.4601 34.12 35.9076 34.4725C39.1251 37.3725 44.6651 47.215 35.7276 54.9475C35.5501 55.125 35.7276 55.4775 35.9076 55.39C38.6176 54.6795 41.1662 53.4558 43.4151 51.785C57.9826 40.535 48.5076 20.585 42.3401 13.995C41.5376 13.2025 40.1076 13.73 40.1076 14.8725C40.0176 17.2475 39.3026 19.8825 37.4276 21.64C35.9976 15.665 31.2326 8.8775 24.4401 5.5375C23.5476 5.0975 22.4751 5.8 22.5651 6.7675C22.7401 14.9425 17.4076 20.1475 12.7601 26.915C8.64761 32.9775 5.96761 44.14 14.8151 51.435Z" fill="#FF9900"/>
</svg>
