<svg width="60" height="60" viewBox="0 0 60 60" fill="none" xmlns="http://www.w3.org/2000/svg">
<g clip-path="url(#clip0_99_247)">
<path d="M1.17285 30C1.17285 33.7857 1.91849 37.5343 3.36721 41.0318C4.81592 44.5293 6.93933 47.7072 9.61621 50.3841C12.2931 53.061 15.471 55.1844 18.9685 56.6331C22.466 58.0818 26.2146 58.8275 30.0003 58.8275C33.7859 58.8275 37.5345 58.0818 41.0321 56.6331C44.5296 55.1844 47.7075 53.061 50.3843 50.3841C53.0612 47.7072 55.1846 44.5293 56.6333 41.0318C58.0821 37.5343 58.8277 33.7857 58.8277 30C58.8277 26.2144 58.0821 22.4658 56.6333 18.9683C55.1846 15.4708 53.0612 12.2928 50.3843 9.61596C47.7075 6.93909 44.5296 4.81568 41.0321 3.36696C37.5345 1.91825 33.7859 1.17261 30.0003 1.17261C26.2146 1.17261 22.466 1.91825 18.9685 3.36696C15.471 4.81568 12.2931 6.93909 9.61621 9.61596C6.93933 12.2928 4.81592 15.4708 3.36721 18.9683C1.91849 22.4658 1.17285 26.2144 1.17285 30Z" fill="#FDDF6D"/>
<path d="M17.6117 28.2154C15.4709 28.2154 13.7354 29.951 13.7354 32.0917H21.4881C21.4879 29.951 19.7525 28.2154 17.6117 28.2154ZM51.4233 27.696C49.2825 27.696 47.5469 29.4316 47.5469 31.5724H55.2996C55.2998 29.4315 53.5643 27.696 51.4233 27.696Z" fill="#F9A880"/>
<path d="M36.1777 54.5717C20.2568 54.5717 7.35039 41.6654 7.35039 25.7444C7.35039 17.2385 11.0351 9.59411 16.8946 4.31763C7.56191 9.08938 1.17285 18.7986 1.17285 30.0001C1.17285 45.9209 14.0792 58.8274 30.0002 58.8274C37.4151 58.8274 44.1754 56.0268 49.2832 51.4271C45.3513 53.4375 40.8971 54.5717 36.1777 54.5717Z" fill="#FCC56B"/>
<path d="M28.863 22.2495C28.2153 22.2495 27.6903 21.7244 27.6903 21.0768C27.6903 19.5641 26.4596 18.3335 24.947 18.3335C23.4345 18.3335 22.2038 19.5642 22.2038 21.0768C22.2038 21.7245 21.6787 22.2495 21.0311 22.2495C20.3834 22.2495 19.8584 21.7244 19.8584 21.0768C19.8584 18.2708 22.1412 15.988 24.9471 15.988C27.7531 15.988 30.0359 18.2708 30.0359 21.0768C30.0358 21.7245 29.5107 22.2495 28.863 22.2495ZM48.6703 22.2495C48.0227 22.2495 47.4977 21.7244 47.4977 21.0768C47.4977 19.5641 46.267 18.3335 44.7544 18.3335C43.2419 18.3335 42.0112 19.5642 42.0112 21.0768C42.0112 21.7245 41.4861 22.2495 40.8385 22.2495C40.1909 22.2495 39.6658 21.7244 39.6658 21.0768C39.6658 18.2708 41.9486 15.988 44.7545 15.988C47.5605 15.988 49.8433 18.2708 49.8433 21.0768C49.843 21.7245 49.318 22.2495 48.6703 22.2495ZM35.1952 46.5955C32.0886 46.5955 29.2186 44.908 27.7056 42.1916C27.3904 41.6257 27.5937 40.9115 28.1594 40.5964C28.7252 40.2811 29.4394 40.4844 29.7546 41.0501C30.8541 43.0239 32.9388 44.2498 35.1952 44.2498C37.3941 44.2498 39.5025 43.0114 40.6976 41.0178C41.0307 40.4624 41.751 40.2819 42.3065 40.615C42.8621 40.948 43.0423 41.6683 42.7093 42.2239C41.0928 44.9206 38.2135 46.5955 35.1952 46.5955Z" fill="#7F184C"/>
<path d="M54.7559 13.0499C51.4064 8.16691 46.7462 4.41258 41.2791 2.19281C40.6789 1.9493 39.995 2.23816 39.7512 2.83828C39.5075 3.4384 39.7965 4.1223 40.3966 4.36617C45.4363 6.41238 49.7329 9.87398 52.8214 14.3768C55.9832 18.9858 57.6543 24.3884 57.6543 30.0001C57.6543 45.249 45.2486 57.6546 29.9998 57.6546C14.751 57.6546 2.34551 45.2487 2.34551 30C2.34551 14.7513 14.7511 2.34551 30 2.34551C30.6477 2.34551 31.1727 1.82039 31.1727 1.17281C31.1727 0.525234 30.6477 0 30 0C13.4578 0 0 13.4578 0 30C0 46.5422 13.4578 60 30 60C46.5422 60 60 46.5422 60 30C60 23.9125 58.1866 18.0512 54.7559 13.0499Z" fill="black"/>
<path d="M28.8622 22.2495C29.5099 22.2495 30.0349 21.7244 30.0349 21.0768C30.0349 18.2708 27.752 15.988 24.9462 15.988C22.1404 15.988 19.8574 18.2708 19.8574 21.0768C19.8574 21.7245 20.3825 22.2495 21.0301 22.2495C21.6778 22.2495 22.2028 21.7244 22.2028 21.0768C22.2028 19.5641 23.4334 18.3335 24.9461 18.3335C26.4587 18.3335 27.6893 19.5642 27.6893 21.0768C27.6895 21.7245 28.2145 22.2495 28.8622 22.2495ZM42.0103 21.0768C42.0103 19.5641 43.2409 18.3335 44.7536 18.3335C46.2662 18.3335 47.4968 19.5642 47.4968 21.0768C47.4968 21.7245 48.0219 22.2495 48.6695 22.2495C49.3171 22.2495 49.8422 21.7244 49.8422 21.0768C49.8422 18.2708 47.5593 15.988 44.7534 15.988C41.9476 15.988 39.6647 18.2708 39.6647 21.0768C39.6647 21.7245 40.1898 22.2495 40.8374 22.2495C41.485 22.2495 42.0103 21.7245 42.0103 21.0768ZM29.7538 41.0503C29.4386 40.4846 28.7243 40.2814 28.1585 40.5966C27.5926 40.9118 27.3895 41.626 27.7048 42.1919C29.2179 44.9083 32.0878 46.5958 35.1943 46.5958C38.2126 46.5958 41.0919 44.9208 42.7086 42.2243C43.0417 41.6687 42.8614 40.9485 42.3059 40.6155C41.7505 40.2824 41.03 40.4629 40.697 41.0182C39.5018 43.0118 37.3934 44.2503 35.1946 44.2503C32.9379 44.25 30.8531 43.024 29.7538 41.0503Z" fill="black"/>
<path d="M35.6328 1.99374C35.6328 2.30476 35.7564 2.60304 35.9763 2.82296C36.1962 3.04288 36.4945 3.16644 36.8055 3.16644C37.1165 3.16644 37.4148 3.04288 37.6347 2.82296C37.8547 2.60304 37.9782 2.30476 37.9782 1.99374C37.9782 1.68272 37.8547 1.38444 37.6347 1.16452C37.4148 0.944596 37.1165 0.821045 36.8055 0.821045C36.4945 0.821045 36.1962 0.944596 35.9763 1.16452C35.7564 1.38444 35.6328 1.68272 35.6328 1.99374Z" fill="black"/>
</g>
<defs>
<clipPath id="clip0_99_247">
<rect width="60" height="60" fill="white"/>
</clipPath>
</defs>
</svg>
