<svg width="60" height="60" viewBox="0 0 60 60" fill="none" xmlns="http://www.w3.org/2000/svg">
<path d="M29.8125 55.6875C16.7344 55.6875 2.625 47.4844 2.625 29.4844C2.625 11.4844 16.7344 3.28125 29.8125 3.28125C37.0781 3.28125 43.7813 5.67187 48.75 10.0312C54.1406 14.8125 57 21.5625 57 29.4844C57 37.4063 54.1406 44.1094 48.75 48.8906C43.7813 53.25 37.0312 55.6875 29.8125 55.6875Z" fill="url(#paint0_radial_99_232)"/>
<path d="M52.2613 13.9077C54.7598 17.939 56.0629 22.739 56.0629 28.078C56.0629 35.9999 53.2035 42.703 47.8129 47.4843C42.8441 51.8437 36.0941 54.2812 28.8754 54.2812C20.4098 54.2812 11.5316 50.8358 6.29102 43.528C11.3348 51.8062 20.8223 55.6874 29.8129 55.6874C37.0316 55.6874 43.7816 53.2499 48.7504 48.8905C54.141 44.1093 57.0004 37.4062 57.0004 29.4843C57.0004 23.5124 55.3738 18.2062 52.2613 13.9077Z" fill="#EB8F00"/>
<path d="M29.9999 40.8516C35.0718 40.8516 38.3577 44.5641 39.2109 46.275C39.539 46.9359 39.5577 47.4844 39.2765 47.7422C38.9812 47.9344 38.5968 47.9344 38.3015 47.7422C38.1562 47.6719 38.0109 47.5922 37.8796 47.4984C35.5828 45.8524 32.828 44.9672 30.0023 44.9672C27.1765 44.9672 24.4218 45.8524 22.1249 47.4984C21.9937 47.5922 21.853 47.6719 21.703 47.7422C21.4077 47.9391 21.0234 47.9391 20.728 47.7422C20.4468 47.4844 20.4655 46.9359 20.7937 46.275C21.6421 44.5687 24.928 40.8516 29.9999 40.8516Z" fill="#422B0D"/>
<path d="M12.8393 18.6422C11.808 18.825 11.7564 20.325 12.8814 20.3766C15.3658 20.4141 17.7658 19.4954 19.5939 17.8125C20.2888 17.2147 20.8769 16.503 21.333 15.7079C21.6049 15.3188 21.5111 14.7844 21.1268 14.5079C20.7424 14.2313 20.2033 14.3297 19.9268 14.7141L19.8799 14.761C18.0377 16.8188 15.558 18.1829 12.8393 18.6422Z" fill="#422B0D"/>
<path d="M40.3691 14.7751L40.3222 14.7283C40.1908 14.5415 39.9907 14.4144 39.7658 14.3749C39.5408 14.3353 39.3094 14.3865 39.1222 14.5173C39.0295 14.5823 38.9506 14.665 38.89 14.7606C38.8295 14.8562 38.7884 14.9628 38.7692 15.0744C38.7501 15.1859 38.7532 15.3002 38.7783 15.4105C38.8035 15.5209 38.8503 15.6251 38.9159 15.7173C39.3753 16.5095 39.9659 17.2173 40.6644 17.8126C42.4925 19.4955 44.8925 20.4095 47.3769 20.3673C48.5019 20.3158 48.4503 18.8158 47.4144 18.633C44.6956 18.1783 42.2159 16.8189 40.3691 14.7751Z" fill="#422B0D"/>
<path d="M9.15039 50.1562C5.18477 50.1562 2.11914 46.3078 2.11914 43.0125C2.11914 40.6968 3.15508 38.0109 4.62227 34.289C4.80508 33.7406 5.04883 33.1875 5.29258 32.5781C5.99102 30.8343 6.60508 28.9453 7.54258 27.3093C7.68557 27.0532 7.89432 26.8399 8.1473 26.6914C8.40027 26.5429 8.6883 26.4646 8.98164 26.4646C9.27498 26.4646 9.56301 26.5429 9.81598 26.6914C10.069 26.8399 10.2777 27.0532 10.4207 27.3093C11.2926 28.9172 11.8926 30.6562 12.7973 32.6859C15.3613 38.4234 16.0785 40.7437 16.0785 43.0593C16.1676 46.3265 13.0551 50.1562 9.15039 50.1562Z" fill="url(#paint1_radial_99_232)"/>
<path d="M13.4395 45.7736C12.5441 47.1798 10.5098 46.8986 10.5098 44.597C10.5098 43.1251 10.8098 35.5689 12.0754 36.6283C14.1285 38.3486 14.7145 43.8142 13.4395 45.7736Z" fill="#81D4FA"/>
<path d="M20.9395 25.7532C18.9754 25.7532 17.1895 27.4125 17.1895 30.1688C17.1895 32.9251 18.9754 34.5797 20.9395 34.5797C22.9035 34.5797 24.6895 32.9204 24.6895 30.1688C24.6895 27.4172 22.9035 25.7532 20.9395 25.7532Z" fill="#422B0D"/>
<path d="M20.7562 27.5952C20.4353 27.4426 20.067 27.4229 19.7316 27.5405C19.3962 27.6582 19.1208 27.9036 18.9656 28.2234C18.7172 28.7437 18.8297 29.3671 19.2469 29.7702C19.9125 30.089 20.714 29.8077 21.0375 29.1421C21.2859 28.6218 21.1734 27.9984 20.7562 27.5952Z" fill="#896024"/>
<path d="M38.9062 25.7532C36.9422 25.7532 35.1562 27.4125 35.1562 30.1688C35.1562 32.9251 36.9422 34.5797 38.9062 34.5797C40.8703 34.5797 42.6562 32.9204 42.6562 30.1688C42.6562 27.4172 40.8797 25.7532 38.9062 25.7532Z" fill="#422B0D"/>
<path d="M38.7328 27.5952C38.4118 27.4426 38.0435 27.4229 37.7081 27.5405C37.3727 27.6582 37.0974 27.9036 36.9422 28.2234C36.6937 28.7437 36.8062 29.3671 37.2234 29.7702C37.889 30.089 38.6906 29.8077 39.014 29.1421C39.2625 28.6218 39.15 27.9984 38.7328 27.5952Z" fill="#896024"/>
<defs>
<radialGradient id="paint0_radial_99_232" cx="0" cy="0" r="1" gradientUnits="userSpaceOnUse" gradientTransform="translate(29.8125 29.4844) scale(26.7)">
<stop offset="0.5" stop-color="#FDE030"/>
<stop offset="0.92" stop-color="#F7C02B"/>
<stop offset="1" stop-color="#F4A223"/>
</radialGradient>
<radialGradient id="paint1_radial_99_232" cx="0" cy="0" r="1" gradientUnits="userSpaceOnUse" gradientTransform="translate(9.65195 29.5032) scale(15.6563 24.1106)">
<stop offset="0.46" stop-color="#29B6F6"/>
<stop offset="1" stop-color="#1E88E5"/>
</radialGradient>
</defs>
</svg>
